<?xml version="1.0" standalone="no"?>
<!DOCTYPE svg PUBLIC "-//W3C//DTD SVG 20010904//EN"
 "http://www.w3.org/TR/2001/REC-SVG-20010904/DTD/svg10.dtd">
<svg version="1.0" xmlns="http://www.w3.org/2000/svg"
 width="690.000000pt" height="690.000000pt" viewBox="0 0 690.000000 690.000000"
 preserveAspectRatio="xMidYMid meet">
<metadata>
Created by potrace 1.14, written by Peter Selinger 2001-2017
</metadata>
<g transform="translate(0.000000,690.000000) scale(0.100000,-0.100000)"
fill="#000000" stroke="none">
<path d="M250 4953 c0 -1202 4 -1968 10 -2002 5 -31 19 -129 30 -217 23 -180
44 -275 96 -444 60 -196 84 -260 152 -410 327 -717 874 -1264 1592 -1592 290
-132 585 -216 890 -252 74 -9 171 -21 215 -27 153 -21 514 1 777 46 156 27
223 45 478 127 117 38 396 162 493 219 174 103 335 208 402 263 28 23 66 53
85 68 113 85 372 350 491 504 139 180 294 439 391 656 90 200 187 507 223 708
50 274 48 192 52 2303 l4 1997 -3191 0 -3190 0 0 -1947z m6098 -118 c3 -1844
3 -1871 -39 -2125 -75 -462 -272 -911 -568 -1295 -110 -142 -375 -408 -516
-516 -326 -251 -717 -443 -1075 -529 -271 -64 -545 -95 -785 -87 -455 16 -887
129 -1273 336 -549 293 -976 729 -1250 1276 -140 278 -211 497 -275 840 l-31
170 -3 1845 c-2 1014 -1 1850 1 1857 4 11 553 13 2908 11 l2903 -3 3 -1780z"/>
<path d="M3295 6003 c-190 -11 -454 -69 -643 -139 -188 -71 -434 -208 -576
-322 -150 -121 -306 -275 -382 -379 -15 -21 -45 -61 -66 -89 -121 -162 -275
-488 -327 -691 -61 -240 -63 -265 -68 -855 -4 -532 -4 -548 14 -548 45 0 139
23 201 50 37 16 69 27 71 25 2 -2 -13 -29 -34 -60 -85 -129 -98 -215 -93 -624
5 -346 8 -366 71 -485 44 -83 138 -175 217 -213 146 -70 124 -68 660 -68 482
0 485 0 550 23 142 51 221 108 305 223 85 115 87 127 97 604 10 459 8 441 72
489 39 30 120 29 162 -1 63 -45 64 -52 64 -460 0 -405 5 -454 59 -565 17 -35
58 -94 92 -131 52 -57 77 -75 164 -118 138 -68 183 -72 715 -67 l425 4 77 31
c146 58 241 139 305 260 57 107 63 151 63 523 0 261 -4 349 -15 398 -16 68
-53 148 -93 200 -14 18 -22 35 -19 39 4 3 39 -9 77 -26 68 -31 203 -61 216
-48 3 3 3 438 -1 966 l-8 961 -276 2 -276 3 -5 270 -5 270 -270 5 -270 5 -3
273 -2 272 -598 -2 c-328 -1 -619 -3 -647 -5z m-783 -1679 c101 -32 194 -101
279 -207 54 -68 172 -163 248 -202 36 -18 109 -47 161 -65 89 -31 104 -34 230
-34 151 -1 197 8 335 63 145 58 202 103 392 304 109 116 238 171 398 171 162
-1 271 -47 385 -163 81 -81 119 -147 151 -260 16 -54 19 -100 19 -258 0 -258
23 -359 107 -470 13 -18 21 -33 17 -33 -4 0 -36 13 -70 30 -109 51 -122 53
-574 57 -547 6 -601 -2 -754 -102 l-68 -45 -45 40 c-95 83 -228 122 -347 101
-86 -15 -122 -31 -200 -90 l-65 -50 -68 45 c-151 99 -205 107 -754 102 l-424
-3 -70 -26 c-38 -14 -88 -34 -109 -43 l-39 -18 18 29 c92 138 97 161 105 453
7 248 8 257 35 325 85 211 235 338 440 375 71 13 177 2 267 -26z m344 -1381
c51 -27 110 -92 138 -152 20 -44 21 -60 21 -361 0 -301 -1 -317 -21 -361 -28
-60 -87 -125 -138 -152 -40 -22 -50 -22 -499 -25 -312 -2 -470 1 -498 8 -51
14 -131 86 -159 144 -19 40 -20 60 -20 377 l0 335 25 50 c32 65 90 120 151
144 46 18 74 19 504 17 446 -2 456 -2 496 -24z m2201 -5 c31 -17 67 -47 88
-75 62 -82 66 -112 63 -465 -3 -300 -4 -315 -25 -354 -35 -66 -74 -105 -128
-130 l-50 -24 -450 0 c-279 0 -464 4 -487 10 -55 16 -116 67 -157 134 l-36 59
-3 324 -3 324 25 54 c14 30 45 74 70 99 79 76 71 75 586 73 l455 -2 52 -27z"/>
<path d="M2080 2430 l0 -270 270 0 270 0 0 139 0 138 -47 7 c-108 15 -193 104
-229 244 -3 9 -38 12 -134 12 l-130 0 0 -270z"/>
<path d="M4270 2430 l0 -270 270 0 270 0 0 140 c0 136 -1 140 -21 140 -46 0
-103 26 -149 67 -60 54 -87 96 -96 151 l-7 42 -133 0 -134 0 0 -270z"/>
</g>
</svg>
